<svg width="25" height="25" viewBox="0 0 25 25" fill="none" xmlns="http://www.w3.org/2000/svg">
<g clip-path="url(#clip0_6602_5209)">
<path d="M24.5626 12.2813C24.5626 5.49852 19.0641 0 12.2813 0C5.49852 0 0 5.49852 0 12.2813C0 18.4111 4.49107 23.4921 10.3623 24.4134V15.8314H7.24404V12.2813H10.3623V9.57557C10.3623 6.49757 12.1959 4.79738 15.0012 4.79738C16.3444 4.79738 17.7503 5.03725 17.7503 5.03725V8.0596H16.2017C14.6761 8.0596 14.2002 9.00636 14.2002 9.97855V12.2813H17.6064L17.0619 15.8314H14.2002V24.4134C20.0715 23.4921 24.5626 18.4111 24.5626 12.2813Z" fill="#043F3E"/>
</g>
<defs>
<clipPath id="clip0_6602_5209">
<rect width="24.5626" height="24.5626" fill="white"/>
</clipPath>
</defs>
</svg>
