<svg width="20" height="24" viewBox="0 0 20 24" fill="none" xmlns="http://www.w3.org/2000/svg">
<path fill-rule="evenodd" clip-rule="evenodd" d="M2.87071 2.8705C4.70866 1.03255 7.20145 0 9.80071 0C12.4 0 14.8928 1.03255 16.7307 2.8705C18.5687 4.70845 19.6012 7.20125 19.6012 9.8005C19.6012 12.3998 18.5687 14.8926 16.7307 16.7305L10.5078 22.9534C10.1173 23.3439 9.48413 23.3439 9.0936 22.9534L2.87071 16.7305C1.96059 15.8205 1.23863 14.7401 0.746076 13.551C0.253518 12.362 0 11.0875 0 9.8005C0 8.51346 0.253518 7.23903 0.746076 6.04997C1.23863 4.86092 1.96059 3.78053 2.87071 2.8705ZM9.80071 12.6005C10.5433 12.6005 11.2555 12.3055 11.7806 11.7804C12.3057 11.2553 12.6007 10.5431 12.6007 9.8005C12.6007 9.05789 12.3057 8.3457 11.7806 7.8206C11.2555 7.2955 10.5433 7.0005 9.80071 7.0005C9.0581 7.0005 8.34591 7.2955 7.82081 7.8206C7.29571 8.3457 7.00071 9.05789 7.00071 9.8005C7.00071 10.5431 7.29571 11.2553 7.82081 11.7804C8.34591 12.3055 9.0581 12.6005 9.80071 12.6005Z" fill="#603813"/>
</svg>
