<svg width="24" height="24" viewBox="0 0 24 24" fill="none" xmlns="http://www.w3.org/2000/svg">
<path fill-rule="evenodd" clip-rule="evenodd" d="M0 11.6396C0 4.95283 5.24082 0 11.9996 0C18.7584 0 23.9992 4.95583 23.9992 11.6426C23.9992 18.3294 18.7584 23.2822 11.9996 23.2822C10.7846 23.2822 9.62068 23.1202 8.52571 22.8202C8.31272 22.7632 8.08473 22.7782 7.88373 22.8682L5.50181 23.9182C5.35796 23.9816 5.20071 24.0088 5.04391 23.9973C4.8871 23.9857 4.73553 23.9358 4.60251 23.852C4.4695 23.7682 4.35911 23.6529 4.28106 23.5164C4.203 23.38 4.15967 23.2264 4.15486 23.0692L4.08886 20.9333C4.08286 20.6693 3.96287 20.4233 3.76787 20.2493C1.43395 18.1614 0 15.1375 0 11.6396ZM8.31873 9.45268L4.79385 15.0445C4.45486 15.5815 5.11484 16.1845 5.61882 15.8005L9.40469 12.9266C9.52926 12.832 9.68125 12.7805 9.83768 12.7799C9.9941 12.7794 10.1464 12.8298 10.2717 12.9236L13.0766 15.0265C13.2755 15.1759 13.5033 15.2825 13.7455 15.3394C13.9877 15.3963 14.2391 15.4025 14.4838 15.3574C14.7284 15.3123 14.9611 15.2169 15.1671 15.0774C15.3731 14.9378 15.5479 14.757 15.6805 14.5465L19.2084 8.9577C19.5443 8.42072 18.8844 7.81474 18.3804 8.19872L14.5945 11.0726C14.4699 11.1672 14.318 11.2187 14.1615 11.2193C14.0051 11.2198 13.8528 11.1694 13.7275 11.0756L10.9226 8.9727C10.7237 8.82329 10.4959 8.71674 10.2537 8.65979C10.0115 8.60285 9.76014 8.59673 9.51546 8.64183C9.27077 8.68694 9.0381 8.78228 8.83212 8.92184C8.62614 9.0614 8.45133 9.24215 8.31873 9.45268Z" fill="#603813"/>
</svg>
