<svg width="25" height="25" viewBox="0 0 25 25" fill="none" xmlns="http://www.w3.org/2000/svg">
<path fill-rule="evenodd" clip-rule="evenodd" d="M11.308 0H13.5165C16.5496 0 18.3221 0.445497 19.8956 1.2891C21.469 2.13269 22.7107 3.36492 23.5448 4.93839C24.3884 6.51184 24.8339 8.28434 24.8339 11.3175V13.5165C24.8339 16.5497 24.3884 18.3222 23.5448 19.8956C22.7012 21.4691 21.469 22.7108 19.8956 23.5449C18.3221 24.3885 16.5496 24.834 13.5165 24.834H11.3174C8.28429 24.834 6.51179 24.3885 4.93834 23.5449C3.36491 22.7013 2.12321 21.4691 1.28909 19.8956C0.445492 18.3222 0 16.5497 0 13.5165V11.3175C0 8.28434 0.445492 6.51184 1.28909 4.93839C2.13269 3.36492 3.36491 2.12322 4.93834 1.2891C6.50234 0.445497 8.28429 0 11.308 0ZM9.21126 11.5876C10.2048 13.3792 11.5046 15.0357 13.9088 16.263C14.2696 16.4484 14.598 16.263 14.8802 15.9708C15.2994 15.5557 15.8878 14.3788 16.5911 14.7072L19.211 16.2187C19.747 16.5814 19.5878 17.4278 19.211 18.0808C18.6931 18.9957 17.6451 19.2899 16.6556 19.4431C15.1462 19.6708 13.7919 19.1589 12.1556 18.1433C11.7525 17.8994 11.3313 17.6374 10.9081 17.319C8.2258 15.3038 5.46691 11.636 5.97878 8.39142C6.20248 6.94849 7.15569 5.76554 9.02384 5.9328L10.7005 8.78842C11.0431 9.21566 10.7912 9.61267 10.2693 9.99758C9.74732 10.3825 8.88882 10.8359 9.21126 11.5957V11.5876Z" fill="#603813"/>
</svg>
