<svg width="25" height="25" viewBox="0 0 25 25" fill="none" xmlns="http://www.w3.org/2000/svg">
<g clip-path="url(#clip0_6608_580)">
<path fill-rule="evenodd" clip-rule="evenodd" d="M11.391 0.0830078H13.5995C16.6327 0.0830078 18.4052 0.528505 19.9786 1.3721C21.5521 2.2157 22.7938 3.44793 23.6279 5.0214C24.4715 6.59485 24.917 8.36735 24.917 11.4005V13.5996C24.917 16.6327 24.4715 18.4052 23.6279 19.9786C22.7843 21.5521 21.5521 22.7938 19.9786 23.628C18.4052 24.4715 16.6327 24.917 13.5995 24.917H11.4005C8.3673 24.917 6.5948 24.4715 5.02135 23.628C3.44792 22.7844 2.20622 21.5521 1.3721 19.9786C0.5285 18.4052 0.0830078 16.6327 0.0830078 13.5996V11.4005C0.0830078 8.36735 0.5285 6.59485 1.3721 5.0214C2.2157 3.44793 3.44792 2.20622 5.02135 1.3721C6.58535 0.528505 8.3673 0.0830078 11.391 0.0830078Z" fill="#603813"/>
<path opacity="0.12" fill-rule="evenodd" clip-rule="evenodd" d="M24.9168 13.2368V13.5997C24.9168 16.6329 24.4713 18.4054 23.6278 19.9788C22.7842 21.5523 21.5519 22.794 19.9785 23.6281C18.405 24.4717 16.6325 24.9172 13.5993 24.9172H11.4003C8.91845 24.9172 7.2806 24.6189 5.9052 24.0483L3.6377 21.7134L24.9168 13.2368Z" fill="#001A33"/>
<path fill-rule="evenodd" clip-rule="evenodd" d="M3.8895 21.7946C5.05095 21.923 6.50305 21.5918 7.5341 21.0912C12.0112 23.5659 19.0098 23.4477 23.2461 20.7366C23.4104 20.4902 23.5639 20.2338 23.7064 19.9681C24.5531 18.3889 25.0002 16.61 25.0002 13.5658V11.3588C25.0002 8.3145 24.5531 6.53555 23.7064 4.95637C22.8692 3.37718 21.6231 2.14047 20.0438 1.29379C18.4646 0.447119 16.6857 0 13.6415 0H11.4249C8.8322 0 7.1491 0.326377 5.73495 0.949465C5.65765 1.01868 5.5818 1.08909 5.50755 1.16068C1.35867 5.16015 1.04329 13.8297 4.56139 18.5391C4.56532 18.5461 4.56966 18.5531 4.57444 18.5602C5.1167 19.3593 4.59347 20.7577 3.77534 21.5758C3.64215 21.6995 3.68972 21.7756 3.8895 21.7946Z" fill="#F8F3EC"/>
<path d="M10.2816 8.5H5.41911V9.54265H8.79346L5.46646 13.6658C5.36221 13.8175 5.28641 13.9597 5.28641 14.2819V14.5473H9.87401C10.1015 14.5473 10.2911 14.3578 10.2911 14.1303V13.571H6.74611L9.87401 9.6469C9.92141 9.59005 10.0067 9.4858 10.0447 9.4384L10.0636 9.40995C10.2437 9.14455 10.2816 8.91705 10.2816 8.6422V8.5Z" fill="#603813"/>
<path d="M16.4708 14.5473H17.1628V8.5H16.1201V14.1966C16.1201 14.3862 16.2718 14.5473 16.4708 14.5473Z" fill="#603813"/>
<path d="M12.907 9.84619C11.599 9.84619 10.5374 10.9078 10.5374 12.2158C10.5374 13.5239 11.599 14.5855 12.907 14.5855C14.2151 14.5855 15.2767 13.5239 15.2767 12.2158C15.2862 10.9078 14.2246 9.84619 12.907 9.84619ZM12.907 13.6092C12.1393 13.6092 11.5137 12.9836 11.5137 12.2158C11.5137 11.4481 12.1393 10.8225 12.907 10.8225C13.6748 10.8225 14.3004 11.4481 14.3004 12.2158C14.3004 12.9836 13.6843 13.6092 12.907 13.6092Z" fill="#603813"/>
<path d="M20.2434 9.80762C18.9258 9.80762 17.8548 10.8787 17.8548 12.1962C17.8548 13.5138 18.9258 14.5849 20.2434 14.5849C21.5609 14.5849 22.632 13.5138 22.632 12.1962C22.632 10.8787 21.5609 9.80762 20.2434 9.80762ZM20.2434 13.6086C19.4661 13.6086 18.8405 12.983 18.8405 12.2057C18.8405 11.4285 19.4661 10.8029 20.2434 10.8029C21.0206 10.8029 21.6462 11.4285 21.6462 12.2057C21.6462 12.983 21.0206 13.6086 20.2434 13.6086Z" fill="#603813"/>
<path d="M14.7281 14.5467H15.2873V9.97803H14.3111V14.1392C14.3111 14.3572 14.5006 14.5467 14.7281 14.5467Z" fill="#603813"/>
</g>
<defs>
<clipPath id="clip0_6608_580">
<rect width="25" height="25" fill="white"/>
</clipPath>
</defs>
</svg>
