<svg width="25" height="25" viewBox="0 0 25 25" fill="none" xmlns="http://www.w3.org/2000/svg">
<g clip-path="url(#clip0_6602_5210)">
<path d="M12.2813 2.21159C15.5627 2.21159 15.9513 2.22598 17.2418 2.28355C18.4411 2.33632 19.0888 2.53781 19.5205 2.70572C20.0914 2.9264 20.504 3.19506 20.931 3.62202C21.3627 4.05379 21.6266 4.46156 21.8473 5.03245C22.0152 5.46422 22.2167 6.11666 22.2694 7.31121C22.327 8.6065 22.3414 8.99509 22.3414 12.2717C22.3414 15.5531 22.327 15.9417 22.2694 17.2322C22.2167 18.4315 22.0152 19.0792 21.8473 19.5109C21.6266 20.0818 21.3579 20.4944 20.931 20.9214C20.4992 21.3531 20.0914 21.617 19.5205 21.8377C19.0888 22.0056 18.4363 22.2071 17.2418 22.2598C15.9465 22.3174 15.5579 22.3318 12.2813 22.3318C8.99989 22.3318 8.6113 22.3174 7.3208 22.2598C6.12146 22.2071 5.47381 22.0056 5.04205 21.8377C4.47116 21.617 4.05858 21.3483 3.63162 20.9214C3.19985 20.4896 2.936 20.0818 2.71532 19.5109C2.54741 19.0792 2.34592 18.4267 2.29315 17.2322C2.23558 15.9369 2.22119 15.5483 2.22119 12.2717C2.22119 8.99029 2.23558 8.6017 2.29315 7.31121C2.34592 6.11186 2.54741 5.46422 2.71532 5.03245C2.936 4.46156 3.20465 4.04899 3.63162 3.62202C4.06338 3.19026 4.47116 2.9264 5.04205 2.70572C5.47381 2.53781 6.12626 2.33632 7.3208 2.28355C8.6113 2.22598 8.99989 2.21159 12.2813 2.21159ZM12.2813 0C8.94712 0 8.52974 0.0143921 7.22006 0.0719607C5.91517 0.129529 5.01806 0.340614 4.24088 0.642849C3.43013 0.959476 2.7441 1.37685 2.06287 2.06287C1.37685 2.7441 0.959476 3.43013 0.642849 4.23609C0.340614 5.01806 0.129529 5.91037 0.0719607 7.21526C0.0143921 8.52974 0 8.94711 0 12.2813C0 15.6155 0.0143921 16.0328 0.0719607 17.3425C0.129529 18.6474 0.340614 19.5445 0.642849 20.3217C0.959476 21.1325 1.37685 21.8185 2.06287 22.4997C2.7441 23.1809 3.43013 23.6031 4.23609 23.9149C5.01806 24.2172 5.91037 24.4283 7.21526 24.4858C8.52495 24.5434 8.94232 24.5578 12.2765 24.5578C15.6107 24.5578 16.028 24.5434 17.3377 24.4858C18.6426 24.4283 19.5397 24.2172 20.3169 23.9149C21.1229 23.6031 21.8089 23.1809 22.4901 22.4997C23.1713 21.8185 23.5935 21.1325 23.9053 20.3265C24.2076 19.5445 24.4187 18.6522 24.4762 17.3473C24.5338 16.0376 24.5482 15.6203 24.5482 12.2861C24.5482 8.95191 24.5338 8.53454 24.4762 7.22486C24.4187 5.91997 24.2076 5.02286 23.9053 4.24568C23.6031 3.43013 23.1857 2.7441 22.4997 2.06287C21.8185 1.38165 21.1325 0.959476 20.3265 0.647646C19.5445 0.345411 18.6522 0.134327 17.3473 0.0767581C16.0328 0.0143921 15.6155 0 12.2813 0Z" fill="#043F3E"/>
<path d="M12.2813 5.97266C8.79844 5.97266 5.97278 8.79831 5.97278 12.2812C5.97278 15.7641 8.79844 18.5898 12.2813 18.5898C15.7642 18.5898 18.5899 15.7641 18.5899 12.2812C18.5899 8.79831 15.7642 5.97266 12.2813 5.97266ZM12.2813 16.3734C10.0218 16.3734 8.18917 14.5408 8.18917 12.2812C8.18917 10.0216 10.0218 8.18905 12.2813 8.18905C14.5409 8.18905 16.3735 10.0216 16.3735 12.2812C16.3735 14.5408 14.5409 16.3734 12.2813 16.3734Z" fill="#043F3E"/>
<path d="M20.3122 5.72329C20.3122 6.53884 19.6501 7.19608 18.8394 7.19608C18.0238 7.19608 17.3666 6.53404 17.3666 5.72329C17.3666 4.90773 18.0286 4.25049 18.8394 4.25049C19.6501 4.25049 20.3122 4.91253 20.3122 5.72329Z" fill="#043F3E"/>
</g>
<defs>
<clipPath id="clip0_6602_5210">
<rect width="24.5626" height="24.5626" fill="white"/>
</clipPath>
</defs>
</svg>
