<svg width="24" height="24" viewBox="0 0 24 24" fill="none" xmlns="http://www.w3.org/2000/svg">
<path d="M0 23.9998L1.68698 17.8368C0.645994 16.0329 0.0989991 13.9879 0.0999991 11.8909C0.102999 5.33495 5.43795 0 11.9929 0C15.1739 0.000999991 18.1598 1.23999 20.4058 3.48797C22.6508 5.73595 23.8868 8.72392 23.8858 11.9019C23.8828 18.4588 18.5478 23.7938 11.9929 23.7938C10.0029 23.7928 8.04193 23.2938 6.30494 22.3458L0 23.9998ZM6.59694 20.1928C8.27293 21.1878 9.87291 21.7838 11.9889 21.7848C17.4368 21.7848 21.8748 17.3508 21.8778 11.8999C21.8798 6.43794 17.4628 2.00998 11.9969 2.00798C6.54494 2.00798 2.10998 6.44194 2.10798 11.8919C2.10698 14.1169 2.75898 15.7829 3.85397 17.5258L2.85497 21.1738L6.59694 20.1928ZM17.9838 14.7289C17.9098 14.6049 17.7118 14.5309 17.4138 14.3819C17.1168 14.2329 15.6559 13.5139 15.3829 13.4149C15.1109 13.3159 14.9129 13.2659 14.7139 13.5639C14.5159 13.8609 13.9459 14.5309 13.7729 14.7289C13.5999 14.9269 13.4259 14.9519 13.1289 14.8029C12.8319 14.6539 11.8739 14.3409 10.7389 13.3279C9.85591 12.5399 9.25892 11.5669 9.08592 11.2689C8.91292 10.9719 9.06792 10.8109 9.21592 10.6629C9.34992 10.5299 9.51292 10.3159 9.66191 10.1419C9.81291 9.96991 9.86191 9.84591 9.96191 9.64691C10.0609 9.44892 10.0119 9.27492 9.93691 9.12592C9.86191 8.97792 9.26792 7.51493 9.02092 6.91994C8.77892 6.34094 8.53392 6.41894 8.35193 6.40994L7.78193 6.39994C7.58393 6.39994 7.26194 6.47394 6.98994 6.77194C6.71794 7.06994 5.94995 7.78793 5.94995 9.25092C5.94995 10.7139 7.01494 12.1269 7.16294 12.3249C7.31193 12.5229 9.25792 15.5249 12.2389 16.8119C12.9479 17.1178 13.5019 17.3008 13.9329 17.4378C14.6449 17.6638 15.2929 17.6318 15.8049 17.5558C16.3759 17.4708 17.5628 16.8368 17.8108 16.1429C18.0588 15.4479 18.0588 14.8529 17.9838 14.7289Z" fill="#603813"/>
</svg>
